<svg width="30" height="30" viewBox="0 0 30 30" fill="none" xmlns="http://www.w3.org/2000/svg">
<path d="M15 0C6.71652 0 0 6.71652 0 15C0 23.2835 6.71652 30 15 30C23.2835 30 30 23.2835 30 15C30 6.71652 23.2835 0 15 0ZM15 27.4554C8.12277 27.4554 2.54464 21.8772 2.54464 15C2.54464 8.12277 8.12277 2.54464 15 2.54464C21.8772 2.54464 27.4554 8.12277 27.4554 15C27.4554 21.8772 21.8772 27.4554 15 27.4554Z" fill="black"/>
<path d="M20.7824 19.1561L16.054 15.8049V7.76003C16.054 7.61702 15.9346 7.5 15.7887 7.5H14.1937C14.0478 7.5 13.9285 7.61702 13.9285 7.76003V16.7117C13.9285 16.7962 13.9683 16.8743 14.0379 16.923L19.5224 20.843C19.6418 20.9275 19.8076 20.9015 19.8938 20.7878L20.8421 19.5201C20.9283 19.3998 20.9018 19.2373 20.7824 19.1561Z" fill="black"/>
</svg>
