<svg width="119" height="257" viewBox="0 0 119 257" fill="none" xmlns="http://www.w3.org/2000/svg">
<path d="M0 172.059H37.7317V195.654C37.7317 212.11 44.625 220.338 58.4116 220.338C72.1982 220.338 79.0915 212.11 79.0915 195.654V139.753C79.0915 123.055 72.1982 114.706 58.4116 114.706C44.625 114.706 37.7317 123.055 37.7317 139.753V147.376H0L7.2561 0H112.47V36.2994H43.1738L39.9085 96.9195C47.4065 84.5777 59.0163 78.4068 74.7378 78.4068C104.246 78.4068 119 97.7665 119 136.486V193.113C119 213.683 113.921 229.533 103.762 240.665C93.6037 251.555 78.8496 257 59.5 257C40.1504 257 25.3963 251.555 15.2378 240.665C5.07927 229.533 0 213.683 0 193.113V172.059Z" fill="#FFD319"/>
</svg>
