<svg width="210" height="257" viewBox="0 0 210 257" fill="none" xmlns="http://www.w3.org/2000/svg">
<path d="M0 63.161V34.8474C13.7764 34.8474 23.5649 32.1855 29.3655 26.8616C35.1661 21.5377 39.9999 13.5518 43.867 2.90394H70.6947V257H30.8157V63.161H0Z" fill="#FFD319"/>
<path d="M169.988 65.339C169.988 54.4491 168.175 46.9473 164.55 42.8333C161.166 38.4774 156.09 36.2994 149.323 36.2994C135.547 36.2994 128.658 44.6483 128.658 61.346V88.5706H90.9546V63.887C90.9546 43.3173 96.0301 27.5876 106.181 16.6977C116.332 5.56591 131.075 0 150.411 0C169.746 0 184.489 5.56591 194.64 16.6977C204.791 27.5876 209.867 43.3173 209.867 63.887C209.867 78.6488 207.087 92.6846 201.528 105.994C196.211 119.304 189.565 130.678 181.589 140.116C173.855 149.554 166.121 158.387 158.387 166.614C150.652 174.842 144.006 183.191 138.447 191.661C133.13 199.889 130.471 207.754 130.471 215.256C130.471 217.676 130.592 219.491 130.834 220.701H206.241V257H90.9546V225.782C90.9546 211.989 93.6132 199.405 98.9304 188.031C104.489 176.415 111.136 166.372 118.87 157.903C126.604 149.191 134.338 140.721 142.072 132.493C149.806 124.023 156.332 114.101 161.649 102.727C167.208 91.3536 169.988 78.8908 169.988 65.339Z" fill="#FFD319"/>
</svg>
