<svg width="328" height="257" viewBox="0 0 328 257" fill="none" xmlns="http://www.w3.org/2000/svg">
<path d="M0 173.008H37.3296V196.339C37.3296 212.611 44.1494 220.747 57.7891 220.747C71.4288 220.747 78.2486 212.611 78.2486 196.339V141.063C78.2486 124.552 71.4288 116.296 57.7891 116.296C44.1494 116.296 37.3296 124.552 37.3296 141.063V148.601H0L7.17877 2.87149H111.271V38.7654H42.7137L39.4832 98.7081C46.9013 86.5042 58.3873 80.4022 73.9414 80.4022C103.135 80.4022 117.732 99.5456 117.732 137.832V193.827C117.732 214.167 112.707 229.84 102.656 240.848C92.6062 251.616 78.0093 257 58.8659 257C39.7225 257 25.1257 251.616 15.0754 240.848C5.02514 229.84 0 214.167 0 193.827V173.008Z" fill="#FFD319"/>
<path d="M144.108 216.081H182.156V254.128H144.108V216.081Z" fill="#FFD319"/>
<path d="M246.961 60.6606V196.339C246.961 212.851 253.781 221.106 267.42 221.106C281.06 221.106 287.88 212.851 287.88 196.339V60.6606C287.88 44.1494 281.06 35.8938 267.42 35.8938C253.781 35.8938 246.961 44.1494 246.961 60.6606ZM207.478 193.827V63.1732C207.478 43.0726 212.622 27.5186 222.912 16.5112C233.202 5.50372 248.038 0 267.42 0C286.803 0 301.639 5.50372 311.929 16.5112C322.218 27.5186 327.363 43.0726 327.363 63.1732V193.827C327.363 213.927 322.218 229.481 311.929 240.489C301.639 251.496 286.803 257 267.42 257C248.038 257 233.202 251.496 222.912 240.489C212.622 229.481 207.478 213.927 207.478 193.827Z" fill="#FFD319"/>
</svg>
